<svg width="193.0494px" height="28.108px" viewBox="0 0 193.0494 28.108" version="1.1" xmlns="http://www.w3.org/2000/svg" xmlns:xlink="http://www.w3.org/1999/xlink">
    <defs>
        <polygon id="path-vikr7ioww5-1" points="0 0 193.0494 0 193.0494 28.108 0 28.108"></polygon>
    </defs>
    <g id="Page-1" stroke="none" stroke-width="1" fill="none" fill-rule="evenodd">
        <g id="Group-3">
            <mask id="mask-vikr7ioww5-2" fill="white">
                <use xlink:href="#path-vikr7ioww5-1"></use>
            </mask>
            <g id="Clip-2"></g>
            <path d="M175.2364,27.473 L175.2364,7.723 C175.2364,6.26 175.1594,4.758 175.1204,3.527 C179.5164,11.611 184.7214,18.772 191.2374,27.473 L193.0494,27.473 L193.0494,0.523 L191.2374,0.523 L191.2374,21.16 C191.2374,22.622 191.2754,23.892 191.3914,24.855 C185.1454,16.385 180.2864,9.34 175.2364,0.523 L173.4634,0.523 L173.4634,27.473 L175.2364,27.473 Z M164.3884,27.473 L166.2004,27.473 L166.2004,0.523 L164.3884,0.523 L164.3884,27.473 Z M142.0274,0.634 L136.9904,0.634 C137.2034,2.646 137.4674,4.498 137.7864,6.299 C136.9904,11.38 134.8694,17.997 132.2724,23.133 C129.0384,16.356 126.9184,9.686 126.0704,0.634 L120.7684,0.634 C121.8294,10.957 124.0014,18.208 129.3564,27.473 L134.6044,27.473 C136.8844,23.185 138.6874,18.685 139.8534,14.503 C141.2854,18.739 143.1944,22.868 145.5264,27.473 L150.9344,27.473 C155.9174,18.208 158.4094,10.957 159.5224,0.634 L154.2204,0.634 C153.5844,9.686 151.3574,16.356 148.0184,23.133 C144.9964,16.356 142.8754,9.686 142.0274,0.634 L142.0274,0.634 Z M97.8964,14.028 C97.8964,8.257 100.3364,4.498 105.0004,4.498 C109.8254,4.498 112.1044,8.257 112.1044,14.028 C112.1044,19.85 109.8254,23.608 105.0004,23.608 C100.3364,23.608 97.8964,19.85 97.8964,14.028 L97.8964,14.028 Z M117.6184,14.028 C117.6184,5.663 112.9534,0 105.0004,0 C97.1544,0 92.4364,5.663 92.4364,14.028 C92.4364,22.444 97.1544,28.108 105.0004,28.108 C112.9534,28.108 117.6184,22.444 117.6184,14.028 L117.6184,14.028 Z M75.4984,2.54 L75.4984,27.473 L80.8534,27.473 L80.8534,5.874 C82.3374,5.08 84.3524,4.498 87.0014,4.498 C87.8514,4.498 88.8584,4.605 89.6524,4.869 L90.3944,0.369 C89.4414,0.157 88.1164,0 86.6304,0 C82.5484,0 78.2554,1.005 75.4984,2.54 L75.4984,2.54 Z M56.3544,2.54 L56.3544,27.473 L61.7094,27.473 L61.7094,5.874 C63.1934,5.08 65.2084,4.498 67.8594,4.498 C68.7074,4.498 69.7144,4.605 70.5104,4.869 L71.2524,0.369 C70.2974,0.157 68.9724,0 67.4884,0 C63.4064,0 59.1114,1.005 56.3544,2.54 L56.3544,2.54 Z M49.2294,25.673 L49.2294,10.48 C49.2294,3.757 45.5704,0 38.3084,0 C35.1804,0 31.7874,0.634 29.6134,1.534 L30.6744,5.822 C32.7414,4.974 35.2864,4.498 37.7784,4.498 C41.9654,4.498 43.9804,6.511 43.9804,10.216 L43.9804,12.439 C42.3364,12.068 40.1644,11.857 38.3604,11.857 C32.3164,11.857 27.9174,14.556 27.9174,20.062 C27.9174,24.721 31.4164,28.108 38.3604,28.108 C43.3444,28.108 47.0024,26.944 49.2294,25.673 L49.2294,25.673 Z M38.8374,24.085 C35.2864,24.085 33.2714,22.656 33.2714,19.85 C33.2714,16.568 35.7094,15.403 38.9974,15.403 C40.8524,15.403 42.4964,15.668 43.9804,16.039 L43.9804,22.973 C42.9734,23.556 41.2774,24.085 38.8374,24.085 L38.8374,24.085 Z M5.3554,27.473 L5.3554,5.874 C7.1564,4.974 9.3314,4.498 11.5574,4.498 C15.5864,4.498 17.5484,6.722 17.5484,10.586 L17.5484,27.473 L22.9024,27.473 L22.9024,10.216 C22.9024,3.757 18.9784,0 11.5574,0 C7.4754,0 3.2864,0.952 -0.0006,2.486 L-0.0006,27.473 L5.3554,27.473 Z" id="Fill-1" fill="#1D1D1B" mask="url(#mask-vikr7ioww5-2)"></path>
        </g>
    </g>
</svg>